<svg width="1200" height="675" viewBox="0 0 1200 675" fill="none" xmlns="http://www.w3.org/2000/svg" role="img" aria-labelledby="title desc">
  <title id="title">Hybrid transaction routing and local AI fallback cover</title>
  <desc id="desc">Dark model-routing artwork showing transaction cards, merchant override, ONNX inference, confidence gate, and offline Qwen fallback.</desc>
  <defs>
    <pattern id="grid" width="38" height="38" patternUnits="userSpaceOnUse">
      <path d="M38 0H0V38" stroke="#7CC7FF" stroke-opacity="0.07"/>
    </pattern>
    <linearGradient id="pathGrad" x1="137" y1="337" x2="1032" y2="337" gradientUnits="userSpaceOnUse">
      <stop stop-color="#2EF2C5"/>
      <stop offset="0.5" stop-color="#7CC7FF"/>
      <stop offset="1" stop-color="#E7F75A"/>
    </linearGradient>
    <radialGradient id="privacyGlow" cx="0" cy="0" r="1" gradientUnits="userSpaceOnUse" gradientTransform="translate(771 337) rotate(90) scale(250 330)">
      <stop stop-color="#7CC7FF" stop-opacity="0.26"/>
      <stop offset="1" stop-color="#070809" stop-opacity="0"/>
    </radialGradient>
  </defs>

  <rect width="1200" height="675" fill="#070809"/>
  <rect width="1200" height="675" fill="url(#grid)"/>
  <rect x="57" y="53" width="1086" height="569" rx="18" fill="#0B0E12" stroke="#273039"/>
  <circle cx="771" cy="337" r="300" fill="url(#privacyGlow)"/>

  <g stroke="url(#pathGrad)" stroke-width="5" stroke-linecap="round" stroke-linejoin="round">
    <path d="M261 337H397"/>
    <path d="M543 337H673"/>
    <path d="M813 337H941"/>
  </g>
  <path d="M659 337C659 421 571 450 501 474" stroke="#FF6A3D" stroke-width="4" stroke-dasharray="12 12" stroke-linecap="round"/>
  <path d="M501 474H399" stroke="#FF6A3D" stroke-width="4" stroke-dasharray="12 12" stroke-linecap="round"/>

  <g font-family="JetBrains Mono, Consolas, monospace" font-weight="700">
    <g transform="translate(108 218)">
      <rect width="162" height="238" rx="14" fill="#101419" stroke="#3B4651"/>
      <text x="26" y="45" fill="#2EF2C5" font-size="21">TXN QUEUE</text>
      <rect x="24" y="73" width="114" height="30" rx="6" fill="#171C22" stroke="#273039"/>
      <rect x="24" y="119" width="92" height="30" rx="6" fill="#171C22" stroke="#273039"/>
      <rect x="24" y="165" width="126" height="30" rx="6" fill="#171C22" stroke="#273039"/>
      <circle cx="133" cy="88" r="7" fill="#E7F75A"/>
      <circle cx="111" cy="134" r="7" fill="#2EF2C5"/>
      <circle cx="145" cy="180" r="7" fill="#FF6A3D"/>
    </g>

    <g transform="translate(394 246)">
      <rect width="158" height="183" rx="14" fill="#101419" stroke="#2EF2C5" stroke-opacity="0.55"/>
      <text x="29" y="45" fill="#2EF2C5" font-size="21">MERCHANT</text>
      <text x="36" y="73" fill="#9AA4AF" font-size="17">override</text>
      <path d="M43 119H117M43 142H94" stroke="#E7F75A" stroke-width="7" stroke-linecap="square"/>
    </g>

    <g transform="translate(667 214)">
      <rect width="158" height="247" rx="14" fill="#101419" stroke="#7CC7FF" stroke-opacity="0.6"/>
      <text x="48" y="46" fill="#7CC7FF" font-size="22">ONNX</text>
      <text x="30" y="75" fill="#9AA4AF" font-size="17">local path</text>
      <circle cx="79" cy="137" r="45" stroke="#7CC7FF" stroke-width="8"/>
      <path d="M54 137H104M79 112V162" stroke="#2EF2C5" stroke-width="7"/>
      <text x="35" y="212" fill="#E7F75A" font-size="18">private</text>
    </g>

    <g transform="translate(934 245)">
      <rect width="156" height="183" rx="14" fill="#101419" stroke="#E7F75A" stroke-opacity="0.6"/>
      <text x="47" y="44" fill="#E7F75A" font-size="22">QWEN</text>
      <text x="28" y="72" fill="#9AA4AF" font-size="17">offline</text>
      <text x="28" y="100" fill="#9AA4AF" font-size="17">fallback</text>
      <path d="M42 135L73 160L118 117" stroke="#2EF2C5" stroke-width="9" stroke-linecap="square" stroke-linejoin="round"/>
    </g>

    <g transform="translate(364 458)">
      <rect width="178" height="76" rx="12" fill="#101419" stroke="#FF6A3D" stroke-opacity="0.5"/>
      <text x="26" y="33" fill="#FF6A3D" font-size="19">CONFIDENCE</text>
      <text x="52" y="59" fill="#9AA4AF" font-size="17">gate</text>
    </g>

    <rect x="93" y="89" width="360" height="63" rx="10" fill="#101419" stroke="#2EF2C5" stroke-opacity="0.38"/>
    <text x="121" y="129" fill="#2EF2C5" font-size="25">HYBRID LOCAL ROUTER</text>
    <rect x="775" y="512" width="302" height="66" rx="10" fill="#101419" stroke="#7CC7FF" stroke-opacity="0.42"/>
    <text x="802" y="553" fill="#7CC7FF" font-size="23">NO CLOUD DEFAULT</text>
  </g>

  <g opacity="0.7">
    <path d="M732 91L755 114L732 137L709 114L732 91Z" fill="#2EF2C5"/>
    <path d="M1017 122L1033 138L1017 154L1001 138L1017 122Z" fill="#E7F75A"/>
    <path d="M180 530L197 547L180 564L163 547L180 530Z" fill="#FF6A3D"/>
  </g>
</svg>
